<svg>
    <symbol id="logo-white" width="360" height="48" viewBox="0 0 360 48" fill="none" xmlns="http://www.w3.org/2000/svg">
    <path d="M342.786 48C339.181 48 336.096 47.2891 333.53 45.8672C330.963 44.4309 328.995 42.4345 327.626 39.878C326.256 37.3071 325.571 34.3268 325.571 30.9372C325.571 27.5476 326.256 24.5746 327.626 22.018C328.995 19.4471 330.963 17.4507 333.53 16.0288C336.096 14.5925 339.181 13.8744 342.786 13.8744C346.39 13.8744 349.475 14.5925 352.041 16.0288C354.608 17.4507 356.576 19.4471 357.945 22.018C359.315 24.5746 360 27.5476 360 30.9372C360 34.3268 359.315 37.3071 357.945 39.878C356.576 42.4345 354.608 44.4309 352.041 45.8672C349.475 47.2891 346.39 48 342.786 48ZM342.872 39.2101C343.881 39.2101 344.754 38.8726 345.489 38.1975C346.224 37.5225 346.794 36.5602 347.197 35.3106C347.601 34.0611 347.803 32.5746 347.803 30.851C347.803 29.1132 347.601 27.6266 347.197 26.3914C346.794 25.1419 346.224 24.1796 345.489 23.5045C344.754 22.8295 343.881 22.492 342.872 22.492C341.805 22.492 340.89 22.8295 340.126 23.5045C339.361 24.1796 338.778 25.1419 338.374 26.3914C337.97 27.6266 337.768 29.1132 337.768 30.851C337.768 32.5746 337.97 34.0611 338.374 35.3106C338.778 36.5602 339.361 37.5225 340.126 38.1975C340.89 38.8726 341.805 39.2101 342.872 39.2101Z" fill="white"/>
    <path d="M304.431 48C300.884 48 297.827 47.325 295.261 45.9749C292.709 44.6105 290.741 42.6571 289.357 40.115C287.988 37.5584 287.303 34.4992 287.303 30.9372C287.303 27.5189 287.995 24.5315 289.379 21.9749C290.763 19.4184 292.716 17.4291 295.239 16.0072C297.763 14.5853 300.74 13.8744 304.171 13.8744C306.68 13.8744 308.95 14.2622 310.983 15.0378C313.016 15.8133 314.753 16.9408 316.195 18.4202C317.637 19.8852 318.747 21.6661 319.525 23.7631C320.304 25.86 320.693 28.2227 320.693 30.851V33.6087H291.022V27.0593H309.707C309.693 26.1114 309.448 25.2783 308.972 24.5602C308.511 23.8277 307.883 23.2604 307.091 22.8582C306.312 22.4417 305.425 22.2335 304.431 22.2335C303.465 22.2335 302.578 22.4417 301.771 22.8582C300.963 23.2604 300.314 23.8205 299.824 24.5387C299.348 25.2568 299.096 26.097 299.067 27.0593V34.1257C299.067 35.1886 299.291 36.1365 299.738 36.9695C300.185 37.8026 300.826 38.4561 301.662 38.93C302.499 39.404 303.508 39.641 304.69 39.641C305.512 39.641 306.262 39.5261 306.939 39.2963C307.631 39.0665 308.222 38.7361 308.712 38.3053C309.203 37.86 309.563 37.3286 309.794 36.711H320.693C320.318 39.009 319.432 41.0054 318.033 42.7002C316.635 44.3807 314.782 45.6877 312.475 46.6212C310.183 47.5404 307.501 48 304.431 48Z" fill="white"/>
    <path d="M260.068 47.8276C257.704 47.8276 255.527 47.21 253.537 45.9748C251.562 44.7396 249.976 42.8653 248.78 40.3518C247.597 37.8384 247.006 34.6714 247.006 30.8509C247.006 26.8581 247.626 23.6122 248.866 21.1131C250.12 18.614 251.735 16.7827 253.71 15.6194C255.7 14.456 257.791 13.8743 259.982 13.8743C261.626 13.8743 263.067 14.1615 264.307 14.7361C265.547 15.2962 266.585 16.0502 267.421 16.9982C268.257 17.9317 268.892 18.9587 269.324 20.079H269.497V3.27466H281.435V47.3967H269.584V41.9676H269.324C268.863 43.0879 268.2 44.0933 267.335 44.9838C266.484 45.8599 265.446 46.5565 264.221 47.0736C263.01 47.5763 261.626 47.8276 260.068 47.8276ZM264.48 38.693C265.576 38.693 266.513 38.377 267.292 37.745C268.084 37.0987 268.69 36.1939 269.108 35.0305C269.541 33.8527 269.757 32.4596 269.757 30.8509C269.757 29.2136 269.541 27.8132 269.108 26.6499C268.69 25.4721 268.084 24.5745 267.292 23.9569C266.513 23.3249 265.576 23.0089 264.48 23.0089C263.384 23.0089 262.447 23.3249 261.669 23.9569C260.905 24.5745 260.314 25.4721 259.895 26.6499C259.492 27.8132 259.29 29.2136 259.29 30.8509C259.29 32.4883 259.492 33.8958 259.895 35.0736C260.314 36.2369 260.905 37.1346 261.669 37.7666C262.447 38.3842 263.384 38.693 264.48 38.693Z" fill="white"/>
    <path d="M228.807 47.3968V14.3052H240.744V47.3968H228.807ZM234.775 10.8582C233.161 10.8582 231.777 10.3267 230.623 9.26391C229.47 8.20107 228.893 6.9228 228.893 5.42908C228.893 3.93537 229.47 2.65709 230.623 1.59425C231.777 0.531417 233.161 0 234.775 0C236.405 0 237.789 0.531417 238.928 1.59425C240.081 2.65709 240.658 3.93537 240.658 5.42908C240.658 6.9228 240.081 8.20107 238.928 9.26391C237.789 10.3267 236.405 10.8582 234.775 10.8582Z" fill="white"/>
    <path d="M224.193 14.3053L213.034 47.3968H199.194L188.035 14.3053H200.578L205.941 36.194H206.287L211.65 14.3053H224.193Z" fill="white"/>
    <path d="M150.112 12.9264V3.27466H188.607V12.9264H175.285V47.3967H163.434V12.9264H150.112Z" fill="white"/>
    <path d="M143.174 25.3357V34.298H122.413V25.3357H143.174Z" fill="white"/>
    <path d="M102.148 32.9193V14.3053H114.085V47.3969H102.753V41.106H102.407C101.687 43.2173 100.425 44.869 98.6229 46.0611C96.8207 47.2389 94.6797 47.8277 92.1999 47.8277C89.8787 47.8277 87.8459 47.2963 86.1014 46.2335C84.3713 45.1706 83.0233 43.7056 82.0573 41.8385C81.1058 39.9714 80.6228 37.8313 80.6084 35.4184V14.3053H92.546V32.9193C92.5604 34.5566 92.9785 35.8421 93.8003 36.7757C94.6365 37.7092 95.8043 38.176 97.3037 38.176C98.2985 38.176 99.1563 37.9678 99.8772 37.5513C100.612 37.1204 101.175 36.5171 101.564 35.7416C101.968 34.9516 102.162 34.0109 102.148 32.9193Z" fill="white"/>
    <path d="M57.332 48C53.7276 48 50.6423 47.2891 48.076 45.8672C45.5098 44.4309 43.5418 42.4345 42.1721 39.878C40.8025 37.3071 40.1177 34.3268 40.1177 30.9372C40.1177 27.5476 40.8025 24.5746 42.1721 22.018C43.5418 19.4471 45.5098 17.4507 48.076 16.0288C50.6423 14.5925 53.7276 13.8744 57.332 13.8744C60.9363 13.8744 64.0216 14.5925 66.5879 16.0288C69.1542 17.4507 71.1222 19.4471 72.4918 22.018C73.8614 24.5746 74.5463 27.5476 74.5463 30.9372C74.5463 34.3268 73.8614 37.3071 72.4918 39.878C71.1222 42.4345 69.1542 44.4309 66.5879 45.8672C64.0216 47.2891 60.9363 48 57.332 48Z" fill="white"/>
    <path d="M0 3.27466H13.4081L22.0585 21.1992H22.4045L31.0549 3.27466H44.4631L28.2003 33.5224V47.3967H16.2628V33.5224L0 3.27466Z" fill="white"/>
    <path d="M69.3442 31.5L51.6393 41.8923V21.1077L69.3442 31.5Z" fill="#FB6231"/>
    </symbol>

    <symbol id="logo-orange" width="1260" height="94" viewBox="0 0 1260 94" fill="none" xmlns="http://www.w3.org/2000/svg">
    <rect x="0.5" y="56.5" width="1259" height="37" rx="18.5" stroke="#FB9953"/>
    <rect x="1155" y="57" width="104" height="36" rx="18" fill="#FF6A00"/>
    <path d="M1172.62 80.5V71.7727H1179.48V80.5H1178.14V73.0227H1173.96V80.5H1172.62ZM1185.8 80.6818C1185.01 80.6818 1184.32 80.4943 1183.72 80.1193C1183.13 79.7443 1182.67 79.2197 1182.34 78.5455C1182.01 77.8712 1181.84 77.0833 1181.84 76.1818C1181.84 75.2727 1182.01 74.4792 1182.34 73.8011C1182.67 73.1231 1183.13 72.5966 1183.72 72.2216C1184.32 71.8466 1185.01 71.6591 1185.8 71.6591C1186.58 71.6591 1187.27 71.8466 1187.86 72.2216C1188.46 72.5966 1188.92 73.1231 1189.25 73.8011C1189.58 74.4792 1189.75 75.2727 1189.75 76.1818C1189.75 77.0833 1189.58 77.8712 1189.25 78.5455C1188.92 79.2197 1188.46 79.7443 1187.86 80.1193C1187.27 80.4943 1186.58 80.6818 1185.8 80.6818ZM1185.8 79.4773C1186.39 79.4773 1186.89 79.3239 1187.27 79.017C1187.66 78.7102 1187.95 78.3068 1188.13 77.8068C1188.32 77.3068 1188.41 76.7652 1188.41 76.1818C1188.41 75.5985 1188.32 75.0549 1188.13 74.5511C1187.95 74.0473 1187.66 73.6402 1187.27 73.3295C1186.89 73.0189 1186.39 72.8636 1185.8 72.8636C1185.2 72.8636 1184.71 73.0189 1184.32 73.3295C1183.93 73.6402 1183.65 74.0473 1183.46 74.5511C1183.28 75.0549 1183.18 75.5985 1183.18 76.1818C1183.18 76.7652 1183.28 77.3068 1183.46 77.8068C1183.65 78.3068 1183.93 78.7102 1184.32 79.017C1184.71 79.3239 1185.2 79.4773 1185.8 79.4773ZM1193.46 78.5227L1197.66 71.7727H1199.21V80.5H1197.87V73.75L1193.69 80.5H1192.12V71.7727H1193.46V78.5227ZM1205.53 80.6818C1204.71 80.6818 1204.01 80.4886 1203.42 80.1023C1202.83 79.7159 1202.37 79.1837 1202.05 78.5057C1201.73 77.8277 1201.58 77.053 1201.58 76.1818C1201.58 75.2955 1201.74 74.5133 1202.06 73.8352C1202.39 73.1534 1202.85 72.6212 1203.44 72.2386C1204.03 71.8523 1204.72 71.6591 1205.51 71.6591C1206.12 71.6591 1206.67 71.7727 1207.17 72C1207.66 72.2273 1208.06 72.5455 1208.38 72.9545C1208.69 73.3636 1208.89 73.8409 1208.96 74.3864H1207.62C1207.52 73.9886 1207.29 73.6364 1206.94 73.3295C1206.59 73.0189 1206.12 72.8636 1205.53 72.8636C1205.01 72.8636 1204.55 73 1204.16 73.2727C1203.77 73.5417 1203.46 73.9223 1203.24 74.4148C1203.02 74.9034 1202.92 75.4773 1202.92 76.1364C1202.92 76.8106 1203.02 77.3977 1203.23 77.8977C1203.45 78.3977 1203.75 78.786 1204.14 79.0625C1204.54 79.339 1205 79.4773 1205.53 79.4773C1205.88 79.4773 1206.19 79.4167 1206.48 79.2955C1206.76 79.1742 1207 79 1207.2 78.7727C1207.4 78.5455 1207.54 78.2727 1207.62 77.9545H1208.96C1208.89 78.4697 1208.7 78.9337 1208.4 79.3466C1208.1 79.7557 1207.71 80.0814 1207.22 80.3239C1206.74 80.5625 1206.17 80.6818 1205.53 80.6818ZM1211.24 80.5V71.7727H1212.58V75.5682H1213.47L1216.61 71.7727H1218.33L1214.81 75.9773L1218.38 80.5H1216.65L1213.79 76.8182H1212.58V80.5H1211.24Z" fill="white"/>
    <path d="M1232.67 81C1236.16 81 1239 78.1645 1239 74.6667C1239 71.1689 1236.16 68.3333 1232.67 68.3333C1229.17 68.3333 1226.33 71.1689 1226.33 74.6667C1226.33 78.1645 1229.17 81 1232.67 81Z" stroke="white" stroke-width="1.5" stroke-linecap="round" stroke-linejoin="round"/>
    <path d="M1239.67 81.6667L1238.33 80.3333" stroke="white" stroke-width="1.5" stroke-linecap="round" stroke-linejoin="round"/>
    <path opacity="0.4" d="M25.4091 81V69.3636H26.8182V74.5455H33.0227V69.3636H34.4318V81H33.0227V75.7955H26.8182V81H25.4091ZM39.9592 81.2045C39.4062 81.2045 38.9043 81.1004 38.4535 80.892C38.0028 80.6799 37.6448 80.375 37.3797 79.9773C37.1145 79.5758 36.9819 79.0909 36.9819 78.5227C36.9819 78.0227 37.0804 77.6174 37.2774 77.3068C37.4744 76.9924 37.7376 76.7462 38.0672 76.5682C38.3967 76.3902 38.7603 76.2576 39.1581 76.1705C39.5596 76.0795 39.963 76.0076 40.3683 75.9545C40.8986 75.8864 41.3285 75.8352 41.6581 75.8011C41.9914 75.7633 42.2338 75.7008 42.3853 75.6136C42.5406 75.5265 42.6183 75.375 42.6183 75.1591V75.1136C42.6183 74.553 42.4649 74.1174 42.1581 73.8068C41.855 73.4962 41.3948 73.3409 40.7774 73.3409C40.1372 73.3409 39.6353 73.4811 39.2717 73.7614C38.9081 74.0417 38.6524 74.3409 38.5047 74.6591L37.2319 74.2045C37.4592 73.6742 37.7622 73.2614 38.141 72.9659C38.5236 72.6667 38.9403 72.4583 39.391 72.3409C39.8456 72.2197 40.2925 72.1591 40.7319 72.1591C41.0122 72.1591 41.3342 72.1932 41.6978 72.2614C42.0653 72.3258 42.4194 72.4602 42.7603 72.6648C43.105 72.8693 43.391 73.178 43.6183 73.5909C43.8456 74.0038 43.9592 74.5568 43.9592 75.25V81H42.6183V79.8182H42.5501C42.4592 80.0076 42.3077 80.2102 42.0956 80.4261C41.8834 80.642 41.6012 80.8258 41.249 80.9773C40.8967 81.1288 40.4668 81.2045 39.9592 81.2045ZM40.1637 80C40.6941 80 41.141 79.8958 41.5047 79.6875C41.8721 79.4792 42.1486 79.2102 42.3342 78.8807C42.5236 78.5511 42.6183 78.2045 42.6183 77.8409V76.6136C42.5615 76.6818 42.4365 76.7443 42.2433 76.8011C42.0539 76.8542 41.8342 76.9015 41.5842 76.9432C41.338 76.9811 41.0975 77.0152 40.8626 77.0455C40.6316 77.072 40.4441 77.0947 40.3001 77.1136C39.9516 77.1591 39.6259 77.233 39.3228 77.3352C39.0236 77.4337 38.7812 77.5833 38.5956 77.7841C38.4137 77.9811 38.3228 78.25 38.3228 78.5909C38.3228 79.0568 38.4952 79.4091 38.8399 79.6477C39.1884 79.8826 39.6297 80 40.1637 80ZM48.0676 79.0227L52.2721 72.2727H53.8176V81H52.4766V74.25L48.2948 81H46.7266V72.2727H48.0676V79.0227ZM51.3857 69.3636H52.6357C52.6357 69.9773 52.4236 70.4792 51.9994 70.8693C51.5751 71.2595 50.9994 71.4545 50.2721 71.4545C49.5562 71.4545 48.9861 71.2595 48.5619 70.8693C48.1414 70.4792 47.9312 69.9773 47.9312 69.3636H49.1812C49.1812 69.6591 49.2626 69.9186 49.4255 70.142C49.5922 70.3655 49.8744 70.4773 50.2721 70.4773C50.6698 70.4773 50.9539 70.3655 51.1244 70.142C51.2986 69.9186 51.3857 69.6591 51.3857 69.3636ZM55.406 73.5227V72.2727H62.4969V73.5227H59.6333V81H58.2924V73.5227H55.406ZM66.1138 79.0227L70.3184 72.2727H71.8638V81H70.5229V74.25L66.3411 81H64.7729V72.2727H66.1138V79.0227ZM79.4598 81V72.2727H83.028C83.9673 72.2727 84.7136 72.4848 85.2666 72.9091C85.8196 73.3333 86.0961 73.8939 86.0961 74.5909C86.0961 75.1212 85.9389 75.5322 85.6245 75.8239C85.3101 76.1117 84.9067 76.3068 84.4143 76.4091C84.7363 76.4545 85.0488 76.5682 85.3518 76.75C85.6586 76.9318 85.9124 77.1818 86.1132 77.5C86.3139 77.8144 86.4143 78.2008 86.4143 78.6591C86.4143 79.1061 86.3007 79.5057 86.0734 79.858C85.8461 80.2102 85.5204 80.4886 85.0961 80.6932C84.6719 80.8977 84.1643 81 83.5734 81H79.4598ZM80.7325 79.7727H83.5734C84.0355 79.7727 84.3973 79.6629 84.6586 79.4432C84.92 79.2235 85.0507 78.9242 85.0507 78.5455C85.0507 78.0947 84.92 77.7405 84.6586 77.483C84.3973 77.2216 84.0355 77.0909 83.5734 77.0909H80.7325V79.7727ZM80.7325 75.9318H83.028C83.3878 75.9318 83.6965 75.8826 83.9541 75.7841C84.2117 75.6818 84.4086 75.5379 84.545 75.3523C84.6851 75.1629 84.7552 74.9394 84.7552 74.6818C84.7552 74.3144 84.6018 74.0265 84.295 73.8182C83.9882 73.6061 83.5658 73.5 83.028 73.5H80.7325V75.9318ZM90.1051 79.0227L94.3096 72.2727H95.8551V81H94.5141V74.25L90.3323 81H88.7641V72.2727H90.1051V79.0227ZM97.6992 83.5V79.75H98.4265C98.6045 79.5644 98.7579 79.3636 98.8867 79.1477C99.0155 78.9318 99.1272 78.6761 99.2219 78.3807C99.3204 78.0814 99.4037 77.7178 99.4719 77.2898C99.5401 76.858 99.6007 76.3371 99.6537 75.7273L99.9492 72.2727H105.495V79.75H106.836V83.5H105.495V81H99.0401V83.5H97.6992ZM99.9492 79.75H104.154V73.5227H101.199L100.972 75.7273C100.877 76.6402 100.76 77.4375 100.62 78.1193C100.48 78.8011 100.256 79.3447 99.9492 79.75ZM112.594 81.1818C111.754 81.1818 111.028 80.9962 110.418 80.625C109.812 80.25 109.344 79.7273 109.015 79.0568C108.689 78.3826 108.526 77.5985 108.526 76.7045C108.526 75.8106 108.689 75.0227 109.015 74.3409C109.344 73.6553 109.803 73.1212 110.39 72.7386C110.981 72.3523 111.67 72.1591 112.458 72.1591C112.913 72.1591 113.362 72.2348 113.805 72.3864C114.248 72.5379 114.651 72.7841 115.015 73.125C115.379 73.4621 115.668 73.9091 115.884 74.4659C116.1 75.0227 116.208 75.7083 116.208 76.5227V77.0909H109.481V75.9318H114.844C114.844 75.4394 114.746 75 114.549 74.6136C114.356 74.2273 114.079 73.9223 113.719 73.6989C113.363 73.4754 112.943 73.3636 112.458 73.3636C111.924 73.3636 111.462 73.4962 111.072 73.7614C110.685 74.0227 110.388 74.3636 110.18 74.7841C109.971 75.2045 109.867 75.6553 109.867 76.1364V76.9091C109.867 77.5682 109.981 78.1269 110.208 78.5852C110.439 79.0398 110.759 79.3864 111.168 79.625C111.577 79.8598 112.053 79.9773 112.594 79.9773C112.947 79.9773 113.265 79.928 113.549 79.8295C113.837 79.7273 114.085 79.5758 114.293 79.375C114.502 79.1705 114.663 78.9167 114.776 78.6136L116.072 78.9773C115.935 79.4167 115.706 79.803 115.384 80.1364C115.062 80.4659 114.665 80.7235 114.191 80.9091C113.718 81.0909 113.185 81.1818 112.594 81.1818ZM122.113 81.1818C121.325 81.1818 120.634 80.9943 120.039 80.6193C119.449 80.2443 118.986 79.7197 118.653 79.0455C118.324 78.3712 118.159 77.5833 118.159 76.6818C118.159 75.7727 118.324 74.9792 118.653 74.3011C118.986 73.6231 119.449 73.0966 120.039 72.7216C120.634 72.3466 121.325 72.1591 122.113 72.1591C122.901 72.1591 123.591 72.3466 124.182 72.7216C124.776 73.0966 125.238 73.6231 125.568 74.3011C125.901 74.9792 126.068 75.7727 126.068 76.6818C126.068 77.5833 125.901 78.3712 125.568 79.0455C125.238 79.7197 124.776 80.2443 124.182 80.6193C123.591 80.9943 122.901 81.1818 122.113 81.1818ZM122.113 79.9773C122.712 79.9773 123.204 79.8239 123.591 79.517C123.977 79.2102 124.263 78.8068 124.449 78.3068C124.634 77.8068 124.727 77.2652 124.727 76.6818C124.727 76.0985 124.634 75.5549 124.449 75.0511C124.263 74.5473 123.977 74.1402 123.591 73.8295C123.204 73.5189 122.712 73.3636 122.113 73.3636C121.515 73.3636 121.022 73.5189 120.636 73.8295C120.25 74.1402 119.964 74.5473 119.778 75.0511C119.593 75.5549 119.5 76.0985 119.5 76.6818C119.5 77.2652 119.593 77.8068 119.778 78.3068C119.964 78.8068 120.25 79.2102 120.636 79.517C121.022 79.8239 121.515 79.9773 122.113 79.9773ZM129.412 81.0909C129.132 81.0909 128.891 80.9905 128.69 80.7898C128.49 80.589 128.389 80.3485 128.389 80.0682C128.389 79.7879 128.49 79.5473 128.69 79.3466C128.891 79.1458 129.132 79.0455 129.412 79.0455C129.692 79.0455 129.933 79.1458 130.134 79.3466C130.334 79.5473 130.435 79.7879 130.435 80.0682C130.435 80.2538 130.387 80.4242 130.293 80.5795C130.202 80.7348 130.079 80.8598 129.923 80.9545C129.772 81.0455 129.601 81.0909 129.412 81.0909ZM134.138 81.0909C133.858 81.0909 133.617 80.9905 133.417 80.7898C133.216 80.589 133.116 80.3485 133.116 80.0682C133.116 79.7879 133.216 79.5473 133.417 79.3466C133.617 79.1458 133.858 79.0455 134.138 79.0455C134.419 79.0455 134.659 79.1458 134.86 79.3466C135.061 79.5473 135.161 79.7879 135.161 80.0682C135.161 80.2538 135.114 80.4242 135.019 80.5795C134.928 80.7348 134.805 80.8598 134.65 80.9545C134.498 81.0455 134.328 81.0909 134.138 81.0909ZM138.865 81.0909C138.584 81.0909 138.344 80.9905 138.143 80.7898C137.942 80.589 137.842 80.3485 137.842 80.0682C137.842 79.7879 137.942 79.5473 138.143 79.3466C138.344 79.1458 138.584 79.0455 138.865 79.0455C139.145 79.0455 139.385 79.1458 139.586 79.3466C139.787 79.5473 139.887 79.7879 139.887 80.0682C139.887 80.2538 139.84 80.4242 139.745 80.5795C139.654 80.7348 139.531 80.8598 139.376 80.9545C139.224 81.0455 139.054 81.0909 138.865 81.0909Z" fill="#292D32"/>
    <path d="M228.524 32C226.121 32 224.064 31.526 222.353 30.5781C220.642 29.6206 219.33 28.2897 218.417 26.5853C217.504 24.8714 217.048 22.8845 217.048 20.6248C217.048 18.3651 217.504 16.383 218.417 14.6787C219.33 12.9647 220.642 11.6338 222.353 10.6858C224.064 9.72833 226.121 9.24957 228.524 9.24957C230.927 9.24957 232.984 9.72833 234.694 10.6858C236.405 11.6338 237.717 12.9647 238.63 14.6787C239.543 16.383 240 18.3651 240 20.6248C240 22.8845 239.543 24.8714 238.63 26.5853C237.717 28.2897 236.405 29.6206 234.694 30.5781C232.984 31.526 230.927 32 228.524 32ZM228.581 26.1401C229.254 26.1401 229.836 25.915 230.326 25.465C230.816 25.015 231.196 24.3734 231.465 23.5404C231.734 22.7074 231.869 21.7164 231.869 20.5673C231.869 19.4088 231.734 18.4177 231.465 17.5943C231.196 16.7612 230.816 16.1197 230.326 15.6697C229.836 15.2196 229.254 14.9946 228.581 14.9946C227.87 14.9946 227.26 15.2196 226.75 15.6697C226.241 16.1197 225.852 16.7612 225.583 17.5943C225.314 18.4177 225.179 19.4088 225.179 20.5673C225.179 21.7164 225.314 22.7074 225.583 23.5404C225.852 24.3734 226.241 25.015 226.75 25.465C227.26 25.915 227.87 26.1401 228.581 26.1401Z" fill="#FB6231"/>
    <path d="M202.954 32C200.589 32 198.552 31.55 196.841 30.6499C195.139 29.7403 193.828 28.4381 192.905 26.7433C191.992 25.0389 191.535 22.9994 191.535 20.6248C191.535 18.3459 191.997 16.3543 192.919 14.6499C193.842 12.9456 195.144 11.6194 196.826 10.6715C198.508 9.72354 200.493 9.24957 202.781 9.24957C204.453 9.24957 205.967 9.5081 207.322 10.0252C208.677 10.5422 209.836 11.2939 210.797 12.2801C211.758 13.2568 212.498 14.4441 213.017 15.842C213.536 17.24 213.796 18.8151 213.796 20.5673V22.4058H194.015V18.0395H206.472C206.462 17.4076 206.298 16.8522 205.981 16.3734C205.674 15.8851 205.256 15.5069 204.727 15.2388C204.208 14.9611 203.617 14.8223 202.954 14.8223C202.31 14.8223 201.719 14.9611 201.18 15.2388C200.642 15.5069 200.21 15.8803 199.883 16.3591C199.566 16.8378 199.397 17.398 199.378 18.0395V22.7505C199.378 23.459 199.527 24.091 199.825 24.6463C200.123 25.2017 200.551 25.6374 201.108 25.9533C201.666 26.2693 202.339 26.4273 203.127 26.4273C203.675 26.4273 204.174 26.3507 204.626 26.1975C205.087 26.0443 205.482 25.8241 205.808 25.5368C206.135 25.24 206.375 24.8857 206.529 24.474H213.796C213.546 26.006 212.955 27.3369 212.022 28.4668C211.09 29.5871 209.855 30.4584 208.317 31.0808C206.789 31.6936 205.001 32 202.954 32Z" fill="#FB6231"/>
    <path d="M173.379 31.8851C171.803 31.8851 170.351 31.4734 169.025 30.6499C167.708 29.8265 166.651 28.5769 165.853 26.9013C165.065 25.2256 164.671 23.1143 164.671 20.5673C164.671 17.9055 165.084 15.7415 165.911 14.0754C166.747 12.4093 167.824 11.1885 169.14 10.4129C170.467 9.63735 171.86 9.24956 173.321 9.24956C174.417 9.24956 175.378 9.44106 176.205 9.82407C177.031 10.1975 177.724 10.7002 178.281 11.3321C178.838 11.9545 179.261 12.6391 179.55 13.386H179.665V2.18314H187.623V31.5978H179.723V27.9785H179.55C179.242 28.7253 178.8 29.3956 178.223 29.9892C177.656 30.5733 176.964 31.0377 176.147 31.3824C175.34 31.7175 174.417 31.8851 173.379 31.8851ZM176.32 25.7953C177.051 25.7953 177.675 25.5847 178.194 25.1634C178.723 24.7325 179.127 24.1293 179.406 23.3537C179.694 22.5685 179.838 21.6397 179.838 20.5673C179.838 19.4758 179.694 18.5422 179.406 17.7666C179.127 16.9815 178.723 16.383 178.194 15.9713C177.675 15.55 177.051 15.3393 176.32 15.3393C175.59 15.3393 174.965 15.55 174.446 15.9713C173.937 16.383 173.542 16.9815 173.264 17.7666C172.995 18.5422 172.86 19.4758 172.86 20.5673C172.86 21.6589 172.995 22.5973 173.264 23.3824C173.542 24.158 173.937 24.7564 174.446 25.1777C174.965 25.5895 175.59 25.7953 176.32 25.7953Z" fill="#FB6231"/>
    <path d="M152.538 31.5978V9.5368H160.496V31.5978H152.538ZM156.517 7.23878C155.441 7.23878 154.518 6.8845 153.749 6.17594C152.98 5.46738 152.595 4.6152 152.595 3.61939C152.595 2.62358 152.98 1.77139 153.749 1.06283C154.518 0.354278 155.441 0 156.517 0C157.603 0 158.526 0.354278 159.285 1.06283C160.054 1.77139 160.439 2.62358 160.439 3.61939C160.439 4.6152 160.054 5.46738 159.285 6.17594C158.526 6.8845 157.603 7.23878 156.517 7.23878Z" fill="#FB6231"/>
    <path d="M149.462 9.53683L142.023 31.5979H132.796L125.357 9.53683H133.719L137.294 24.1293H137.525L141.1 9.53683H149.462Z" fill="#FB6231"/>
    <path d="M100.075 8.61761V2.18314H125.738V8.61761H116.857V31.5978H108.956V8.61761H100.075Z" fill="#FB6231"/>
    <path d="M95.4494 16.8904V22.8653H81.6087V16.8904H95.4494Z" fill="#FB6231"/>
    <path d="M68.0987 21.9462V9.53683H76.0571V31.5979H68.5024V27.404H68.2717C67.7911 28.8115 66.9501 29.9126 65.7487 30.7074C64.5472 31.4925 63.1199 31.8851 61.4667 31.8851C59.9193 31.8851 58.564 31.5308 57.401 30.8223C56.2476 30.1137 55.349 29.1371 54.705 27.8923C54.0706 26.6475 53.7486 25.2209 53.739 23.6122V9.53683H61.6974V21.9462C61.707 23.0377 61.9857 23.8947 62.5336 24.5171C63.0911 25.1395 63.8696 25.4507 64.8692 25.4507C65.5324 25.4507 66.1043 25.3118 66.5849 25.0341C67.0751 24.7469 67.4499 24.3447 67.7094 23.8277C67.9786 23.301 68.1083 22.6739 68.0987 21.9462Z" fill="#FB6231"/>
    <path d="M38.2214 32C35.8185 32 33.7616 31.526 32.0507 30.5781C30.3399 29.6206 29.0279 28.2897 28.1148 26.5853C27.2017 24.8714 26.7452 22.8845 26.7452 20.6248C26.7452 18.3651 27.2017 16.383 28.1148 14.6787C29.0279 12.9647 30.3399 11.6338 32.0507 10.6858C33.7616 9.72833 35.8185 9.24957 38.2214 9.24957C40.6242 9.24957 42.6811 9.72833 44.392 10.6858C46.1028 11.6338 47.4148 12.9647 48.3279 14.6787C49.241 16.383 49.6976 18.3651 49.6976 20.6248C49.6976 22.8845 49.241 24.8714 48.3279 26.5853C47.4148 28.2897 46.1028 29.6206 44.392 30.5781C42.6811 31.526 40.6242 32 38.2214 32Z" fill="#FB6231"/>
    <path d="M0 2.18314H8.93875L14.7057 14.1329H14.9364L20.7033 2.18314H29.642L18.8002 22.3483V31.5978H10.8418V22.3483L0 2.18314Z" fill="#FB6231"/>
    <path d="M46.2295 21L34.4262 27.9282V14.0718L46.2295 21Z" fill="white"/>
    <path d="M1146.41 9.86364H1147.8V19.0227H1147.91L1154.27 9.86364H1155.64V21.5H1154.23V12.3636H1154.11L1147.77 21.5H1146.41V9.86364ZM1158.05 19.2727H1159.48C1159.51 19.6667 1159.69 19.9659 1160.01 20.1705C1160.34 20.375 1160.77 20.4773 1161.3 20.4773C1161.84 20.4773 1162.3 20.3674 1162.68 20.1477C1163.06 19.9242 1163.25 19.5644 1163.25 19.0682C1163.25 18.7765 1163.18 18.5227 1163.04 18.3068C1162.89 18.0871 1162.69 17.9167 1162.43 17.7955C1162.17 17.6742 1161.86 17.6136 1161.5 17.6136H1160V16.4091H1161.5C1162.04 16.4091 1162.43 16.2879 1162.69 16.0455C1162.94 15.803 1163.07 15.5 1163.07 15.1364C1163.07 14.7462 1162.93 14.4337 1162.66 14.1989C1162.38 13.9602 1161.99 13.8409 1161.48 13.8409C1160.97 13.8409 1160.54 13.9564 1160.2 14.1875C1159.86 14.4148 1159.68 14.7083 1159.66 15.0682H1158.25C1158.27 14.5985 1158.41 14.1837 1158.69 13.8239C1158.96 13.4602 1159.33 13.1761 1159.8 12.9716C1160.27 12.7633 1160.81 12.6591 1161.41 12.6591C1162.03 12.6591 1162.56 12.767 1163.01 12.983C1163.46 13.1951 1163.81 13.4848 1164.06 13.8523C1164.31 14.2159 1164.44 14.6288 1164.44 15.0909C1164.44 15.5833 1164.3 15.9811 1164.02 16.2841C1163.74 16.5871 1163.4 16.803 1162.98 16.9318V17.0227C1163.31 17.0455 1163.6 17.1515 1163.84 17.3409C1164.08 17.5265 1164.28 17.7708 1164.41 18.0739C1164.55 18.3731 1164.62 18.7045 1164.62 19.0682C1164.62 19.5985 1164.47 20.0606 1164.19 20.4545C1163.91 20.8447 1163.52 21.1477 1163.02 21.3636C1162.52 21.5758 1161.96 21.6818 1161.32 21.6818C1160.7 21.6818 1160.15 21.5814 1159.66 21.3807C1159.17 21.1761 1158.79 20.8939 1158.5 20.5341C1158.21 20.1705 1158.06 19.75 1158.05 19.2727ZM1173.3 9.5L1173.98 10.3182C1173.71 10.5758 1173.41 10.7557 1173.06 10.858C1172.71 10.9602 1172.32 11.0227 1171.88 11.0455C1171.44 11.0682 1170.95 11.0909 1170.41 11.1136C1169.81 11.1364 1169.3 11.2841 1168.91 11.5568C1168.51 11.8295 1168.2 12.2235 1167.99 12.7386C1167.77 13.2538 1167.63 13.8864 1167.57 14.6364H1167.68C1167.98 14.0909 1168.39 13.6894 1168.91 13.4318C1169.43 13.1742 1169.99 13.0455 1170.59 13.0455C1171.27 13.0455 1171.89 13.2045 1172.43 13.5227C1172.98 13.8409 1173.41 14.3125 1173.73 14.9375C1174.05 15.5625 1174.21 16.3333 1174.21 17.25C1174.21 18.1629 1174.04 18.9508 1173.72 19.6136C1173.4 20.2765 1172.94 20.7879 1172.36 21.1477C1171.78 21.5038 1171.1 21.6818 1170.32 21.6818C1169.54 21.6818 1168.86 21.4981 1168.27 21.1307C1167.68 20.7595 1167.23 20.2102 1166.9 19.483C1166.57 18.7519 1166.41 17.8485 1166.41 16.7727V15.8409C1166.41 13.8977 1166.74 12.4242 1167.4 11.4205C1168.06 10.4167 1169.06 9.89773 1170.39 9.86364C1170.86 9.84848 1171.28 9.8447 1171.64 9.85227C1172.01 9.85985 1172.33 9.8428 1172.6 9.80114C1172.88 9.75947 1173.11 9.65909 1173.3 9.5ZM1170.32 20.4773C1170.85 20.4773 1171.3 20.3447 1171.68 20.0795C1172.06 19.8144 1172.35 19.4413 1172.56 18.9602C1172.76 18.4754 1172.87 17.9053 1172.87 17.25C1172.87 16.6136 1172.76 16.072 1172.55 15.625C1172.35 15.178 1172.06 14.8371 1171.67 14.6023C1171.29 14.3674 1170.83 14.25 1170.3 14.25C1169.91 14.25 1169.56 14.3163 1169.25 14.4489C1168.94 14.5814 1168.67 14.7765 1168.45 15.0341C1168.23 15.2917 1168.06 15.6061 1167.94 15.9773C1167.82 16.3485 1167.76 16.7727 1167.75 17.25C1167.75 18.2273 1167.98 19.0095 1168.44 19.5966C1168.9 20.1837 1169.52 20.4773 1170.32 20.4773ZM1176.58 24.7727V12.7727H1177.87V14.1591H1178.03C1178.13 14.0076 1178.27 13.8144 1178.44 13.5795C1178.62 13.3409 1178.87 13.1288 1179.2 12.9432C1179.54 12.7538 1179.99 12.6591 1180.56 12.6591C1181.29 12.6591 1181.94 12.8428 1182.5 13.2102C1183.06 13.5777 1183.5 14.0985 1183.81 14.7727C1184.13 15.447 1184.28 16.2424 1184.28 17.1591C1184.28 18.0833 1184.13 18.8845 1183.81 19.5625C1183.5 20.2367 1183.06 20.7595 1182.5 21.1307C1181.95 21.4981 1181.31 21.6818 1180.58 21.6818C1180.02 21.6818 1179.57 21.589 1179.23 21.4034C1178.89 21.214 1178.63 21 1178.45 20.7614C1178.27 20.5189 1178.13 20.3182 1178.03 20.1591H1177.92V24.7727H1176.58ZM1177.9 17.1364C1177.9 17.7955 1177.99 18.3769 1178.19 18.8807C1178.38 19.3807 1178.66 19.7727 1179.03 20.0568C1179.4 20.3371 1179.86 20.4773 1180.4 20.4773C1180.96 20.4773 1181.42 20.3295 1181.8 20.0341C1182.18 19.7348 1182.46 19.3333 1182.65 18.8295C1182.84 18.322 1182.94 17.7576 1182.94 17.1364C1182.94 16.5227 1182.85 15.9697 1182.66 15.4773C1182.47 14.9811 1182.19 14.589 1181.81 14.3011C1181.44 14.0095 1180.96 13.8636 1180.4 13.8636C1179.85 13.8636 1179.39 14.0019 1179.02 14.2784C1178.65 14.5511 1178.37 14.9337 1178.18 15.4261C1177.99 15.9148 1177.9 16.4848 1177.9 17.1364ZM1189.22 21.7045C1188.66 21.7045 1188.16 21.6004 1187.71 21.392C1187.26 21.1799 1186.9 20.875 1186.64 20.4773C1186.37 20.0758 1186.24 19.5909 1186.24 19.0227C1186.24 18.5227 1186.34 18.1174 1186.53 17.8068C1186.73 17.4924 1186.99 17.2462 1187.32 17.0682C1187.65 16.8902 1188.02 16.7576 1188.41 16.6705C1188.82 16.5795 1189.22 16.5076 1189.63 16.4545C1190.16 16.3864 1190.59 16.3352 1190.91 16.3011C1191.25 16.2633 1191.49 16.2008 1191.64 16.1136C1191.8 16.0265 1191.88 15.875 1191.88 15.6591V15.6136C1191.88 15.053 1191.72 14.6174 1191.41 14.3068C1191.11 13.9962 1190.65 13.8409 1190.03 13.8409C1189.39 13.8409 1188.89 13.9811 1188.53 14.2614C1188.16 14.5417 1187.91 14.8409 1187.76 15.1591L1186.49 14.7045C1186.72 14.1742 1187.02 13.7614 1187.4 13.4659C1187.78 13.1667 1188.2 12.9583 1188.65 12.8409C1189.1 12.7197 1189.55 12.6591 1189.99 12.6591C1190.27 12.6591 1190.59 12.6932 1190.95 12.7614C1191.32 12.8258 1191.68 12.9602 1192.02 13.1648C1192.36 13.3693 1192.65 13.678 1192.88 14.0909C1193.1 14.5038 1193.22 15.0568 1193.22 15.75V21.5H1191.88V20.3182H1191.81C1191.72 20.5076 1191.56 20.7102 1191.35 20.9261C1191.14 21.142 1190.86 21.3258 1190.51 21.4773C1190.15 21.6288 1189.72 21.7045 1189.22 21.7045ZM1189.42 20.5C1189.95 20.5 1190.4 20.3958 1190.76 20.1875C1191.13 19.9792 1191.41 19.7102 1191.59 19.3807C1191.78 19.0511 1191.88 18.7045 1191.88 18.3409V17.1136C1191.82 17.1818 1191.69 17.2443 1191.5 17.3011C1191.31 17.3542 1191.09 17.4015 1190.84 17.4432C1190.59 17.4811 1190.35 17.5152 1190.12 17.5455C1189.89 17.572 1189.7 17.5947 1189.56 17.6136C1189.21 17.6591 1188.88 17.733 1188.58 17.8352C1188.28 17.9337 1188.04 18.0833 1187.85 18.2841C1187.67 18.4811 1187.58 18.75 1187.58 19.0909C1187.58 19.5568 1187.75 19.9091 1188.1 20.1477C1188.45 20.3826 1188.89 20.5 1189.42 20.5ZM1201.82 16.5227V17.7727H1197.01V16.5227H1201.82ZM1197.32 12.7727V21.5H1195.98V12.7727H1197.32ZM1202.85 12.7727V21.5H1201.51V12.7727H1202.85ZM1211.46 16.5227V17.7727H1206.64V16.5227H1211.46ZM1206.96 12.7727V21.5H1205.62V12.7727H1206.96ZM1212.48 12.7727V21.5H1211.14V12.7727H1212.48ZM1218.79 21.6818C1218.01 21.6818 1217.31 21.4943 1216.72 21.1193C1216.13 20.7443 1215.67 20.2197 1215.33 19.5455C1215 18.8712 1214.84 18.0833 1214.84 17.1818C1214.84 16.2727 1215 15.4792 1215.33 14.8011C1215.67 14.1231 1216.13 13.5966 1216.72 13.2216C1217.31 12.8466 1218.01 12.6591 1218.79 12.6591C1219.58 12.6591 1220.27 12.8466 1220.86 13.2216C1221.46 13.5966 1221.92 14.1231 1222.25 14.8011C1222.58 15.4792 1222.75 16.2727 1222.75 17.1818C1222.75 18.0833 1222.58 18.8712 1222.25 19.5455C1221.92 20.2197 1221.46 20.7443 1220.86 21.1193C1220.27 21.4943 1219.58 21.6818 1218.79 21.6818ZM1218.79 20.4773C1219.39 20.4773 1219.88 20.3239 1220.27 20.017C1220.66 19.7102 1220.94 19.3068 1221.13 18.8068C1221.31 18.3068 1221.41 17.7652 1221.41 17.1818C1221.41 16.5985 1221.31 16.0549 1221.13 15.5511C1220.94 15.0473 1220.66 14.6402 1220.27 14.3295C1219.88 14.0189 1219.39 13.8636 1218.79 13.8636C1218.2 13.8636 1217.7 14.0189 1217.32 14.3295C1216.93 14.6402 1216.64 15.0473 1216.46 15.5511C1216.27 16.0549 1216.18 16.5985 1216.18 17.1818C1216.18 17.7652 1216.27 18.3068 1216.46 18.8068C1216.64 19.3068 1216.93 19.7102 1217.32 20.017C1217.7 20.3239 1218.2 20.4773 1218.79 20.4773ZM1228.77 21.6818C1227.93 21.6818 1227.21 21.4962 1226.6 21.125C1225.99 20.75 1225.52 20.2273 1225.19 19.5568C1224.87 18.8826 1224.71 18.0985 1224.71 17.2045C1224.71 16.3106 1224.87 15.5227 1225.19 14.8409C1225.52 14.1553 1225.98 13.6212 1226.57 13.2386C1227.16 12.8523 1227.85 12.6591 1228.64 12.6591C1229.09 12.6591 1229.54 12.7348 1229.98 12.8864C1230.43 13.0379 1230.83 13.2841 1231.19 13.625C1231.56 13.9621 1231.85 14.4091 1232.06 14.9659C1232.28 15.5227 1232.39 16.2083 1232.39 17.0227V17.5909H1225.66V16.4318H1231.02C1231.02 15.9394 1230.93 15.5 1230.73 15.1136C1230.54 14.7273 1230.26 14.4223 1229.9 14.1989C1229.54 13.9754 1229.12 13.8636 1228.64 13.8636C1228.1 13.8636 1227.64 13.9962 1227.25 14.2614C1226.87 14.5227 1226.57 14.8636 1226.36 15.2841C1226.15 15.7045 1226.05 16.1553 1226.05 16.6364V17.4091C1226.05 18.0682 1226.16 18.6269 1226.39 19.0852C1226.62 19.5398 1226.94 19.8864 1227.35 20.125C1227.76 20.3598 1228.23 20.4773 1228.77 20.4773C1229.13 20.4773 1229.44 20.428 1229.73 20.3295C1230.02 20.2273 1230.27 20.0758 1230.47 19.875C1230.68 19.6705 1230.84 19.4167 1230.96 19.1136L1232.25 19.4773C1232.12 19.9167 1231.89 20.303 1231.56 20.6364C1231.24 20.9659 1230.84 21.2235 1230.37 21.4091C1229.9 21.5909 1229.37 21.6818 1228.77 21.6818Z" fill="#292D32"/>
    <path d="M1249.44 8.92501L1250.91 11.8583C1251.11 12.2667 1251.64 12.6583 1252.09 12.7333L1254.75 13.175C1256.45 13.4583 1256.85 14.6917 1255.63 15.9083L1253.56 17.975C1253.21 18.325 1253.02 19 1253.13 19.4833L1253.72 22.0417C1254.18 24.0667 1253.11 24.85 1251.32 23.7917L1248.83 22.3167C1248.38 22.05 1247.63 22.05 1247.18 22.3167L1244.68 23.7917C1242.9 24.85 1241.82 24.0583 1242.28 22.0417L1242.88 19.4833C1242.98 19 1242.79 18.325 1242.44 17.975L1240.38 15.9083C1239.16 14.6917 1239.55 13.4583 1241.25 13.175L1243.91 12.7333C1244.35 12.6583 1244.88 12.2667 1245.08 11.8583L1246.55 8.92501C1247.35 7.33335 1248.65 7.33335 1249.44 8.92501Z" stroke="#292D32" stroke-linecap="round" stroke-linejoin="round"/>
    </symbol>

    <symbol id="star-ob" width="20" height="20" viewBox="0 0 20 20" fill="none" xmlns="http://www.w3.org/2000/svg">
        <path d="M11.4417 2.92501L12.9084 5.85835C13.1084 6.26668 13.6417 6.65835 14.0917 6.73335L16.75 7.17501C18.45 7.45835 18.85 8.69168 17.625 9.90835L15.5584 11.975C15.2084 12.325 15.0167 13 15.125 13.4833L15.7167 16.0417C16.1834 18.0667 15.1084 18.85 13.3167 17.7917L10.825 16.3167C10.375 16.05 9.63338 16.05 9.17505 16.3167L6.68338 17.7917C4.90005 18.85 3.81671 18.0583 4.28338 16.0417L4.87505 13.4833C4.98338 13 4.79171 12.325 4.44171 11.975L2.37505 9.90835C1.15838 8.69168 1.55005 7.45835 3.25005 7.17501L5.90838 6.73335C6.35005 6.65835 6.88338 6.26668 7.08338 5.85835L8.55005 2.92501C9.35005 1.33335 10.65 1.33335 11.4417 2.92501Z" stroke="#292D32" stroke-linecap="round" stroke-linejoin="round"/>
    </symbol>

    <symbol id="star-ow" width="20" height="20" viewBox="0 0 20 20" fill="none" xmlns="http://www.w3.org/2000/svg">
        <path d="M11.4416 2.92501L12.9083 5.85835C13.1083 6.26668 13.6416 6.65835 14.0916 6.73335L16.7499 7.17501C18.4499 7.45835 18.8499 8.69168 17.6249 9.90835L15.5583 11.975C15.2083 12.325 15.0166 13 15.1249 13.4833L15.7166 16.0417C16.1833 18.0667 15.1083 18.85 13.3166 17.7917L10.8249 16.3167C10.3749 16.05 9.63326 16.05 9.17492 16.3167L6.68326 17.7917C4.89992 18.85 3.81659 18.0583 4.28326 16.0417L4.87492 13.4833C4.98326 13 4.79159 12.325 4.44159 11.975L2.37492 9.90835C1.15826 8.69168 1.54992 7.45835 3.24992 7.17501L5.90826 6.73335C6.34992 6.65835 6.88326 6.26668 7.08326 5.85835L8.54992 2.92501C9.34992 1.33335 10.6499 1.33335 11.4416 2.92501Z" stroke="white" stroke-linecap="round" stroke-linejoin="round"/>
    </symbol>

    <symbol id="star" width="20" height="20" viewBox="0 0 20 20" fill="none" xmlns="http://www.w3.org/2000/svg">
        <path d="M11.4417 2.925L12.9084 5.85833C13.1084 6.26666 13.6417 6.65833 14.0917 6.73333L16.75 7.175C18.45 7.45833 18.85 8.69166 17.625 9.90833L15.5584 11.975C15.2084 12.325 15.0167 13 15.125 13.4833L15.7167 16.0417C16.1834 18.0667 15.1084 18.85 13.3167 17.7917L10.825 16.3167C10.375 16.05 9.63338 16.05 9.17505 16.3167L6.68338 17.7917C4.90005 18.85 3.81671 18.0583 4.28338 16.0417L4.87505 13.4833C4.98338 13 4.79171 12.325 4.44171 11.975L2.37505 9.90833C1.15838 8.69166 1.55005 7.45833 3.25005 7.175L5.90838 6.73333C6.35005 6.65833 6.88338 6.26666 7.08338 5.85833L8.55005 2.925C9.35005 1.33333 10.65 1.33333 11.4417 2.925Z" fill="#FB6231" stroke="#151515" stroke-linecap="round" stroke-linejoin="round"/>
    </symbol>


    <symbol id="search" width="20" height="20" viewBox="0 0 20 20" fill="none" xmlns="http://www.w3.org/2000/svg">
        <path d="M9.66659 16C13.1644 16 15.9999 13.1645 15.9999 9.66667C15.9999 6.16886 13.1644 3.33333 9.66659 3.33333C6.16878 3.33333 3.33325 6.16886 3.33325 9.66667C3.33325 13.1645 6.16878 16 9.66659 16Z" stroke="white" stroke-width="1.5" stroke-linecap="round" stroke-linejoin="round"/>
        <path d="M16.6666 16.6667L15.3333 15.3333" stroke="white" stroke-width="1.5" stroke-linecap="round" stroke-linejoin="round"/>
    </symbol>



</svg>